# xmcd
# 
# Track frame offsets:
#     150
#     16644
#     28020
#     38018
#     51956
#     63029
#     75597
#     89780
#     104259
#     114296
#     127523
#     146581
#     166271
#     179895
#     194012
#     206006
#     218388
#     232770
# 
# Disc length: 3415
# 
# Revision: 1
# Processed by: cddbd v1.5.2PL0 Copyright (c) Steve Scherf et al.
# Submitted via: fre:ac v1.0.31
# 
DISCID=e60d5512
DTITLE=Readers Digest - From Sea To Shining Sea Disc 2
DYEAR=2004
DGENRE=Patriotic
TTITLE0=America
TTITLE1=The Ballad of the Green Berets
TTITLE2=America (My Country Tis of Thee)
TTITLE3=My Tennesses Mountain Home
TTITLE4=This Is My Country
TTITLE5=There's A Star-Spangled Banner Waving Somewhere
TTITLE6=Ragged Old Flag
TTITLE7=Dixie
TTITLE8=Abilene
TTITLE9=The Fightin' Side of Me
TTITLE10=Rocky Mountain High
TTITLE11=Georgia On My Mind
TTITLE12=Coal Miner's Daughter
TTITLE13=Wichita Lineman
TTITLE14=Rocky Top
TTITLE15=Okie From Muskogee
TTITLE16=Tenness Flat-Top Box
TTITLE17=Carolina (I Remember You)
EXTD=Reader Digest Music 2 of 4
EXTT0=
EXTT1=
EXTT2=
EXTT3=
EXTT4=
EXTT5=
EXTT6=
EXTT7=
EXTT8=
EXTT9=
EXTT10=
EXTT11=
EXTT12=
EXTT13=
EXTT14=
EXTT15=
EXTT16=
EXTT17=
PLAYORDER=
